<svg width="32" height="32" viewBox="0 0 32 32" fill="none" xmlns="http://www.w3.org/2000/svg">
<g clip-path="url(#clip0_1380_885)">
<g clip-path="url(#clip1_1380_885)">
<g clip-path="url(#clip2_1380_885)">
<path d="M11.2754 21.606H20.7247V26.3306H11.2754V21.606Z" fill="#E74040"/>
<path d="M16.0002 3.65186C10.2688 3.65186 5.60596 8.31478 5.60596 14.0461V28.2201C5.60596 30.3042 7.30154 31.9998 9.38569 31.9998H22.6147C24.6989 31.9998 26.3945 30.3042 26.3945 28.2201V14.0461C26.3945 8.31472 21.7317 3.65186 16.0002 3.65186ZM10.3306 12.1562H21.6698V14.0461H19.7799V15.936H17.8901V14.0461H10.3306V12.1562ZM22.6147 28.2201H9.38569V19.7157H22.6147V28.2201Z" fill="#E74040"/>
<path d="M25.7052 1.83877L20.342 0L19.5576 2.288C21.4528 2.86245 23.1555 3.88336 24.5431 5.22799L25.7052 1.83877Z" fill="#E74040"/>
<path d="M12.443 2.288L11.6585 0L6.29541 1.83877L7.45743 5.22799C8.84509 3.88342 10.5478 2.86245 12.443 2.288Z" fill="#E74040"/>
</g>
</g>
</g>
<defs>
<clipPath id="clip0_1380_885">
<rect width="32" height="32" fill="white"/>
</clipPath>
<clipPath id="clip1_1380_885">
<rect width="32" height="32" fill="white"/>
</clipPath>
<clipPath id="clip2_1380_885">
<rect width="20.7885" height="32" fill="white" transform="translate(5.60596)"/>
</clipPath>
</defs>
</svg>
